<svg viewBox="0 0 1000 1200" xmlns="http://www.w3.org/2000/svg">
    <g transform="translate(0 612) scale(.1 -.1)" fill="hsla(110, 6%, 41%, 1)">
        <path d="m7251.3 4961.5c-76.8-82.5-239.9-351.2-332-543.2-149.7-312.8-239.9-635.3-287.9-1017.2-30.7-243.8-25-875.2 9.6-1305.1 17.3-199.6 38.4-514.4 48-696.7 42.2-708.2-59.5-1245.6-314.8-1666-111.3-186.2-280.2-408.8-309-410.7-24.9 0-1852.1 1827.2-1852.1 1852.1 1.9 53.7 449.1 353.1 648.7 433.8l103.6 42.2 696.8-696.7c796.5-796.5 708.2-746.6 767.7-429.9l32.6 167-531.7 531.7c-293.7 293.6-524 537.4-514.4 543.2 42.2 26.9 550.8 53.7 779.2 40.3l245.7-13.4-11.5 170.8c-7.7 94-19.2 218.8-26.9 276.4l-11.5 105.6-316.7 5.8c-1049.9 19.2-1750.4-253.3-2412.6-942.4-539.3-562.4-792.7-1157.4-854.1-2011.4-19.2-276.4-17.3-410.7 13.4-978.8 42.2-727.4 46.1-1264.8 11.5-1514.3-67.2-485.6-222.6-892.5-487.5-1270.6-19.2-30.7 1.9-59.5 168.9-226.5 149.7-149.7 195.8-186.2 215-168.9 51.8 42.2 241.8 345.5 332 529.7 314.8 639.2 393.5 1255.2 314.8 2500.9-40.1 636.9-28.6 1208.8 28.9 1500.6 76.8 380 222.6 719.8 428 998.1l97.9 132.4 929-929 929-927-53.8-44.2c-111.3-90.2-326.3-224.6-477.9-295.6-272.5-126.7-176.6-184.2-919.3 558.5-358.9 360.8-658.3 654.5-664.1 654.5-15.4 0-30.7-72.9-65.3-287.9l-26.9-163.1 481.7-481.8c437.6-439.5 476-483.7 433.8-495.2-23-7.7-238-19.2-474.1-25l-429.9-11.5 13.4-261c7.7-168.9 21.1-264.9 36.5-274.5 32.6-21.1 426.1-19.2 715.9 3.8 786.9 63.3 1395.3 328.2 1928.9 840.6 529.7 506.7 804.2 1019.2 921.3 1721.6 38.4 220.7 32.6 1074.8-9.6 1525.8-48 520.1-59.5 967.3-32.6 1247.6 44.1 451 182.3 867.5 397.3 1191.9 57.6 88.3 103.7 163.1 103.7 168.9 0 7.7-84.5 96-188.1 199.6l-188.1 188.1-40.4-43.9z"/>
        <path d="m7477.8 3727.4c-21.1-69.1-44.1-165.1-49.9-215l-11.5-92.1 537.4-537.4c297.5-295.6 539.3-543.2 539.3-548.9 0-28.8-403.1-65.3-735.1-65.3h-362.8l11.5-86.4c5.8-48 15.4-170.8 23-272.5l13.4-188.1h357c525.9 0 879 59.5 1284 211.1 236.1 88.3 493.3 228.4 683.3 366.6l132.4 97.9-190 190c-103.7 103.6-195.8 190-203.5 190-9.6 0-55.7-28.8-105.6-65.3-105.6-74.8-416.5-241.8-452.9-241.8-13.4 0-334 310.9-714 691-380 380-696.7 691-704.4 691-7.4 0-30.5-55.7-51.6-124.8z"/>
        <path d="m1806.3-1504.6c-602.7-63.4-1155.5-268.7-1589.2-587.4l-117.1-86.3 190-190c103.6-103.6 195.8-190 203.4-190 9.6 0 55.7 28.8 105.6 65.2 51.8 36.5 168.9 105.6 262.9 155.5l170.8 90.2 715.9-715.9c817.6-817.7 717.8-762 798.4-445.3l40.3 163.1-562.4 562.4c-412.7 412.7-552.8 564.3-529.7 571.9 94 36.5 499 76.8 794.6 78.7l332 1.9-11.5 249.5c-7.7 138.2-15.4 261-19.2 274.4-9.4 27-529.6 28.9-784.8 2.1z"/>
    </g>
</svg>